<?xml version="1.0" encoding="UTF-8"?>
<svg version="1.1" viewBox="0 0 2048 1109" width="1200" height="650" xmlns="http://www.w3.org/2000/svg">
<path transform="translate(0)" d="m0 0h2048v1109h-2048z" fill="#F5F6FA"/>
<path transform="translate(989,133)" d="m0 0h9l17 9 24 14 52 30 28 16 24 14 28 16 24 14 28 16 24 14 26 15 28 16 24 14 28 16 43 25 8 6 8 12 5 14v341l-3 6-6 5-10 5-4 1h-7v6l-9 9-24 13-17 10-78 45-28 16-24 14-26 15-22 13-26 15-21 12-14 4h-15l-11-4-28-16-24-14-28-16-24-14-78-45-21-12-24-14-26-15-28-16-24-14-52-30-23-13-12-8-1-5 6-7 13-8 23-13 72-42 6-1 3-9 4-7h2l3 6 2 1h8l3-3 1-7 5-1 24-14 23-13 24-14 26-15 21-12 10-5 11-3h17l-9-10-8-16-1-4v-342l4-6 6-5z" fill="#CCE3F4"/>
<path transform="translate(991,162)" d="m0 0 7 1 16 8 23 13 24 14 28 16 104 60 28 16 71 41 24 14 23 13 24 14 12 8 8 9 5 12 2 12v302l-2 7-7 6h-8l-16-8-17-10-52-30-24-14-23-13-24-14-26-15-28-16-24-14-28-16-104-60-10-7-8-9-5-10-3-13-1-23-1-54v-158l2-70 4-7z" fill="#FCFCFC"/>


<path transform="translate(678,695)" d="m0 0 2 3 5 5 24 14 23 13 24 14 28 16 24 14 260 150 8 4 8 2h13l12-3 12-6 19-11 26-15 24-14 28-16 24-14 26-15 28-16 24-14 26-15 28-16 10-7 4-4v17l-4 6-5 4-5 3h-2l3 3 8 5 5 6v7l-5 7-11 7-49 28-24 14-28 16-24 14-28 16-24 14-28 16-24 14-26 15-11 5-6 2h-17l-11-4-18-10-24-14-28-16-52-30-24-14-28-16-97-56-24-14-26-15-28-16-26-15-14-9-4-5v-8l4-6 9-6 1-3-5-2-8-6-2-4z" fill="#CCE3F4"/>
<path transform="translate(961,544)" d="m0 0h6l17 10 1 5 1-2 1 2 8 1 16 10-1 5-16 9-8 1 10 7-1 4-15 9-2 1h-7v2l8 1 5-2 13-8 9-2 4 1-13-8-1-3 4-4 12-7 5-1 9 3 10 6 2 2-1 5h3 8l16 9 1 4-10 7-10 5-4 1 10 5-1-4 4-4 12-7h10l15 9 1 4-6 4h-3v2l-6 3-3 2h-6-3l12 7 2 2-1 4-6 4 1 2 9-5h7 2l-13-8-1-4 10-7 7-4h8l14 8 2 1v5l3 2 7-1 17 10 1 4-4 3-9 5-5 3-7 1 11 7 1 4-9 6-1 1 7-2 6-3h7l16 9 1 5-18 11-6 1 3 2v5l-17 10h-7l-17-10 1-5 1-3-11 4 11 7-1 5h-2l-1 3 6-2h9l15 9 1 4-9 6-9 5h-8v6l-19 11h-10l-78-45-16-9-24-14-2-2 1-4 6-4 9-5 10-5-2-5-5 1-3-1v5l-12 7-9 5h-7l-17-10-10-6 1-5 19-11 7-1 23 13 4 3v-3l-5-2-11-7v-4l16-10h9l5 2-13-8-5-3 2 3-1 5-16 9-7 1-17-10v-4l5-4 12-7h7l4 1-12-7-3-1v6l-18 10h-6l-22-13-28-16-1-4 5-4 12-7 10-1v-4l9-6 7-4 7-1h3l1-5 15-9 7-1h4l3-5z" fill="#E1F0FB"/>
<path transform="translate(743,873)" d="m0 0h36v8l-1 1-27 1-15 15-2 1 2 4 6 9 2 5v7l-4 8-5 6-8 6-5 3h-8l-20-4h-16l-17 3-6 2 17 4 20 1 15 15 1-16 7 6 11 12 2 4-13 12-3 3 16-2 22-6 21-9 15-10 9-8 9-13 5-13h1v53l-4 13-7 12-12 12-15 10-15 7-18 6-25 5h-4v-16l-8 7-8 8-4 3h-10l-22-2-26-5-20-7-19-10-14-11-9-11-7-14-2-12v-47l1-15 3-11 3-6 5 4 3 3v-17l18 18 39 1 5-5 5-4 12-6 16-4 10-1h9l16 2 13 4h4l9-9 8-7z" fill="#3B6EAF"/>
<path transform="translate(1165,691)" d="m0 0 6 1 10 6 6 4-1 4-11 7 6-1 9-5 9 1 5 2-1-2 7-1 12-7 5-1 1-2 1 3h7l12 6 6 4 3 4 10 3 9 6 5 3 3 4 9 2 14 8 2 4h5l4 3 21 12 9 5-1 5-15 9-9 1-5-1-12-7h-9l-16 9 1 4 14 8-1 7-17 10h-8l-2 5-13 8-4 2h-7l-22-13-8-5 4 3 3 2-1 3-6 4-9 1v4l-7 4h-8l-17-10-1-4 4-3 4-2h7v-4l6-4 8-1-8-5 1-4-3-1v-1h-9l-12-7h-4l-1 2-9 6-11 6-2 1h-7l-16-10-2-1v-2l-10-3-17-10-8-5 1-5 19-11h8l18 10 2-1-10-5-9-6 1-4 17-10h7l5 3 1-1-16-9-2-2 1-4 15-9 2-1h6l17 9v-2l-6-2-15-9 1-4 9-6z" fill="#DFEFFA"/>
<path transform="translate(1028,245)" d="m0 0 6 1 28 15 24 14 26 15 17 10 20 11 14 9 3 3 1 34v76l-2 3-6-2-22-12-24-14-29-17-26-15-14-8-14-9-2-3-1-38v-52z" fill="#EDF8FE"/>
<path transform="translate(1506,731)" d="m0 0 4 1 18 10 17 10 1 1v162l-7 5-11 6-19 11-6-1-29-17-5-3v-164l25-14z" fill="#29518D"/>
<path transform="translate(743,873)" d="m0 0h36v8l-1 1-27 1-15 15-2 1 2 4 6 9 2 5v7l-4 8-5 6-8 6-5 3h-8l-20-4h-16l-17 3-6 2 17 4 20 1 16 16 2 5-9 9-8 7-4 2-24-1-26-4-23-7-21-10-12-9-11-11-8-14-1-3-1 43h-1v-47l1-15 3-11 3-6 5 4 3 3v-17l18 18 39 1 5-5 5-4 12-6 16-4 10-1h9l16 2 13 4h4l9-9 8-7z" fill="#5792CE"/>
<path transform="translate(762,403)" d="m0 0 6 2 27 16 25 14 8 6v54l-2 4 6-1 1-5 25-14 15-9h2l-1-4-13-8-10-6 5-5 16-12 18-13 9-6h2v35l-4 9-4 10-7 9-9 7-14 8-28 17-10 6v22l1 37v18l-4 5-5 2-9-1-3-5-6-43-4-31v-15l3-7-4 3 1 37v40l-4 5-2 1h-11l2 5 2 1h9l2-2 1-7h2l2 4v9l-7 11-7 9-7 6h-8l-3-3-1-6 3-13 8-16-2-5-10-75v-11l4-9 9-11-17-11-2-3v-52z" fill="#1A4381"/>
<path transform="translate(678,695)" d="m0 0 2 3 5 5 24 14 23 13 24 14 28 16 24 14 260 150 8 4 8 2h13l12-3 12-6 19-11 26-15 24-14 28-16 24-14 26-15 28-16 24-14 26-15 28-16 10-7 4-4v17l-4 6-5 4-10 6-11 6-17 10-10 6-11 6-19 11-22 13-11 6-15 9-11 6-22 13-11 6-12 7-10 6-11 6-12 7-15 9-11 6-15 9-11 6-8 3-11 2-13-1-16-8-25-14-24-14-130-75-24-14-26-15-28-16-24-14-26-15-28-16-24-14-22-13-4-5-1-2z" fill="#3D70B0"/>
<path transform="translate(1426,821)" d="m0 0 11 6 25 14 3 2v119l-24 14-10 6-4 2-4-1-26-15-9-6-1-1v-112l2-7 25-14z" fill="#2B528D"/>
<path transform="translate(989,133)" d="m0 0h9l17 9 24 14 52 30 28 16 24 14 28 16 24 14 28 16 24 14 26 15 28 16 24 14 28 16 43 25 8 6 8 12 5 14v341l-3 6-6 5-8 4-2-1 4-5 2-7v-331l-5-16-6-11-5-6-16-10-23-13-24-14-28-16-24-14-26-15-28-16-24-14-28-16-24-14-28-16-24-14-28-16-52-30-21-12-7-3h-5v-2z" fill="#3E71B0"/>
<path transform="translate(841,301)" d="m0 0h6l8 5-2 4-1 8 3 6 5 4 5 2h12l5-3 3-4v-9l-3-5 5 2 10 8 7 10 7 19 5 23 2 13v6l-11 3-7 1h-12l-1 13-17 17-8 7-10 9-8 6-6-1-15-9-4-2-1-2v-13l2-18 5-26v-3l-11-7-5-4-5-7 1-6 8-15 11-15 11-14z" fill="#5793CE"/>
<path transform="translate(1283,731)" d="m0 0h8l16 9 2 4h5l4 3 21 12 9 5-1 5-15 9-9 1-5-1-12-7h-9l-16 9 1 4 14 8-1 7-17 10h-8l-2 5-13 8-4 2h-7l-22-13-8-5 4 3 3 2-1 3-6 4-9 1v4l-7 4h-8l-17-10-1-4 4-3 4-2h7v-4l6-4 8-1-8-5 2-5 16-9h7l8 4v-2l-6-2-13-8-1-4 1-2 11-6 5-3h8l7 4 1-1-11-6-2-4 4-4 12-7 8-1 16 8 1-5 9-6z" fill="#DEEEFA"/>
<path transform="translate(779,873)" d="m0 0h1v9h11l5 5 7 9 5 12 3 12v9l-2 2-5 12-10 13-9 8-18 11-20 8-19 5-12 2h-5l6-7 10-9-2-4-8-8-7-8-1-1-1 16-7-6-9-9-20-1-17-4-1-2 16-4 8-1h16l20 4h8l9-6 6-5 5-8 1-3v-7l-6-12-4-4 1-3 8-7 9-9 27-1z" fill="#CCE3F4"/>
<path transform="translate(1345,920)" d="m0 0 15 8 24 14v67l-9 6-14 8-11 6-3 2-6-1-22-13-12-7v-68l15-9 21-12z" fill="#29518D"/>
<path transform="translate(791,1013)" d="m0 0 2 2v8l-4 13-7 10-11 11-15 9-20 8-22 5-19 2h-19l-23-3-20-5-15-6-13-7-10-8-8-9-7-14-1-4v-11l5 2 12 9 21 10 19 6 22 4 22 2h10l12-11 6-6h2v16l29-6 18-6 16-8 11-7z" fill="#CCE3F4"/>
<path transform="translate(679,848)" d="m0 0h12l25 2 23 5 20 7 19 10v1l-35 1-9 9-8 7-4 4-9-3-13-3-10-1h-9l-15 2-16 5-10 6-4 4h-2l-1 3-39-1-15-15-3-5 11-10 14-9 19-8 21-6 24-4z" fill="#CCE3F4"/>
<path transform="translate(743,873)" d="m0 0h36v8l-1 1-27 1-15 15-2 1 2 4 6 9 2 5v7l-4 8-5 6-8 6-5 3h-8l-20-4h-16l-17 3-4 1h-7l-12-7-9-11-1-5v-9h-33v-9h38l5-5 5-4 12-6 16-4 10-1h9l16 2 13 4h4l9-9 8-7z" fill="#17407F"/>
<path transform="translate(961,544)" d="m0 0h6l17 10 1 5 1-2 1 2 8 1 16 10-1 5-16 9-8 1 10 7-1 4-15 9-9 2-5-2-6-3h-7l-16 10v3l2 2h-2v6l-18 10h-6l-22-13-28-16-1-4 5-4 12-7 10-1v-4l9-6 7-4 7-1h3l1-5 15-9 7-1h4l3-5z" fill="#DFEFFA"/>
<path transform="translate(1015,575)" d="m0 0 9 2 12 7 2 2-1 5h3 8l16 9 1 4-10 7-10 5-4 1 10 6v5l-6 3-8 5-3 1h-9l-12-7h-7l-2 3 10-1 17 10 1 3-3 3-16 9-7-1-12-7-3-1 1 5-5 4-12 7h-8l-16-10v-4l16-10h9l5 2-13-8-5-3 2 3-1 5-16 9-7 1-17-10v-4l5-4 12-7h7l4 1-16-10 1-4 13-8 3-2h7l14 8 9-1 10-7 10-4 5 1h2l-13-8-1-3 4-4 12-7z" fill="#DFEFFA"/>
<path transform="translate(1543,755)" d="m0 0h2v161l-6 4-11 6-19 11h-2v-161l22-13z" fill="#0F2665"/>
<path transform="translate(529,575)" d="m0 0 9 3 17 10 26 15 17 10 5 6v56l-8 6-5-1-28-16-24-14-13-8-3-3-2-6v-51l5-5z" fill="#194280"/>
<path transform="translate(1387,764)" d="m0 0h1v17l-4 6-5 4-10 6-11 6-17 10-10 6-11 6-19 11-22 13-11 6-15 9-11 6-22 13-11 6-12 7-10 6-11 6-12 7-15 9-11 6-15 9-11 6-8 3-11 2-13-1-5-2v-18l9 1h13l12-3 12-6 19-11 26-15 24-14 28-16 24-14 26-15 28-16 24-14 26-15 28-16 10-7z" fill="#1A4482"/>
<path transform="translate(1205,134)" d="m0 0 6 1 20 11 24 14 20 12 4 4 1 4v53l-8 6-5-1-28-16-24-14-13-8-4-5-1-3v-49l2-6z" fill="#CCE3F4"/>
<path transform="translate(809,928)" d="m0 0h1v53l-4 13-7 12-12 12-15 10-15 7-18 6-25 5h-4l-1-17 1-1 1-38 25-5 17-5 18-8 15-10 9-8 9-13z" fill="#3B6FAF"/>
<path transform="translate(678,692)" d="m0 0 5 2 11 7 25 14 24 14 26 15 97 56 24 14 26 15 28 16 26 15 45 26 24 14 26 15 14 7 4 1h15l14-4 18-10 24-14 26-15 17-10 26-15 17-10 21-12 104-60 14-8 7-7 2-3 1 2v22h-1l-1-14-5 6-24 14-208 120-36 21-11 4-6 1h-13l-13-4-24-14-28-16-24-14-26-15-28-16-24-14-208-120-21-12-8-6-1-2-1 14h-1v-19z" fill="#F8FBFC"/>
<path transform="translate(1164,726)" d="m0 0h2l-2 4-10 6-1 4 16 9h7l11-6 2 1-1 3-8 5 1 4 15 9h7l15-9h2l-1-5-10-6-1-2 4 1 4 2h7l14-8 3-2 1-5 5 2 10 6 8-1 11-6h2v-2h3v-3h2l2 4-13 8-4 3-1 5-16-8-8 1-14 8-1 4 10 6 5 4-6-1-5-3h-8l-13 8h-3v5l19 11v2l-6-2-2-1h-7l-16 9-4-1v-1h-9l-12-7h-4l-1 2-9 6-11 6-2 1h-7l-16-10-2-1v-2l-10-3-17-10-8-5 1-5 19-11h8l18 10 2-1-10-5-9-6 1-4 17-10h7l5 3 1-1v-1l9-2z" fill="#E1F0FB"/>
<path transform="translate(1400,367)" d="m0 0 4 1 8 12 5 14v341l-3 6-6 5-8 4-2-1 4-5 2-7v-331l-5-16-6-11-4-5v-2z" fill="#163F7E"/>
<path transform="translate(1463,844)" d="m0 0h1v119l-18 10-15 9-5 2 1-118 35-21z" fill="#163F7E"/>
<path transform="translate(973,673)" d="m0 0h7l11 6 17 10 71 41 22 13v5l-19 11h-10l-78-45-16-9-24-14-2-2 1-4 6-4 9-5z" fill="#194281"/>
<path transform="translate(762,403)" d="m0 0 4 2v2l21 12 18 11 17 10 3 5-1 52-5-1-20-11-19-11-6 2 3-4-17-11-2-3v-52z" fill="#5692CE"/>
<path transform="translate(1382,943)" d="m0 0h1v67l-22 13-11 6-5 2-1-2 1-64 16-9 19-11z" fill="#163F7E"/>
<path transform="translate(1211,780)" d="m0 0h7l21 12 23 13 7 4-1 5-13 8-4 2h-7l-22-13-8-5 4 3 3 2-1 3-6 4-9 1v4l-7 4h-8l-17-10-1-4 4-3 4-2h7v-4l6-4 8-1-8-5 2-5z" fill="#1B4482"/>
<path transform="translate(1200,430)" d="m0 0 6 2 28 16 26 15 28 16 26 15 28 16 6 5 2 4v6l-3 3-16-8-24-14-49-28-26-15-24-14-6-4-4-5v-8z" fill="#3E70AF"/>
<path transform="translate(1304,548)" d="m0 0 6 2 20 12v79l-6-2-19-11-1-1z" fill="#3D71B1"/>
<path transform="translate(858,248)" d="m0 0h8l10 3 8 7 6 12 2 9-1 10-5 8-4 1-1-7 2-5v-4l-5 1-4 5-5-2-4-2h-13l-11 3-7-1-5-6-2-11 1-12 5 1 16-8z" fill="#1D4481"/>
<path transform="translate(1200,402)" d="m0 0 7 3 22 12 41 24 28 16 8 6 2 4v7l-1 2-6-1-24-14-28-16-26-15-20-12-4-5-1-2v-7z" fill="#B5D5F1"/>
<path transform="translate(879,589)" d="m0 0h8l18 10 24 14 8 5v5l-18 10h-6l-22-13-28-16-1-4 5-4z" fill="#1A4382"/>
<path transform="translate(1265,542)" d="m0 0 6 2 18 10 1 1v63l-6-2-19-12z" fill="#CDE4F5"/>
<path transform="translate(708,952)" d="m0 0 7 6 11 12 2 4-13 12-3 3-1 39-17 17-5 2v-25l1-30 9-9 8-7 2-4-1-1z" fill="#184180"/>
<path transform="translate(1225,524)" d="m0 0 6 2 19 11 1 1v58l-5-2-21-12z" fill="#1B4482"/>
<path transform="translate(1146,650)" d="m0 0h1v5l-14 8-1 4 15 9h9l14-8h4l-1 3-13 8-1 4 16 9h7l17-10h2v4l-15 9 1 4 17 10 1 2-5-1-4-2h-6l-11 6h-5l4-4 8-5-1-4-11-6-6-3-6 1-15 9-2 4 5 2 16 9v2l-6-2-11-6h-6l-16 9-1 4 13 8 6 4-3 1-5-3h-7l-17 10v3l15 9 4 2-1 2-5-2-15-8h-8l-17 10h-2v2l-11-1v-1l8-1 13-8 5-3h2v-6l10-2 15-9-1-4-14-8h-9l-4 2-3-1 4-4v-4l-10-6-1-2 10-3 5-1-4 5v4l16 9h7l16-9v-5l-3-3 7-1 15-9 2-1v-4l-16-9h-7l-7 4-7 1v-2l10-6-1-4-11-7v-1l10-2 9-6 6-3z" fill="#E3F1FB"/>
<path transform="translate(538,768)" d="m0 0h13l8 5 4 5 3 7v8l-4 8-8 7-6 2h-7l-9-4-6-7-2-4v-12l4-8 6-5z" fill="#5792CD"/>
<path transform="translate(1067,438)" d="m0 0 6 2 16 9 2 2 1 18v35l-5-2-20-12-1-1v-50z" fill="#CDE4F5"/>
<path transform="translate(1200,346)" d="m0 0 16 8 26 15 28 16 16 10 3 9-3 5-6-2-24-14-52-30-5-6-1-2v-7z" fill="#B5D5F1"/>
<path transform="translate(996,560)" d="m0 0 11 3 15 9h7l5-3 2 1v3l-3 2 1 4 16 9 7-1 5-2 1-2v2h2v2l-5 3-1 3 15 9 2 1h7l5-2 1 2h-2v6l13 8 2 1v2h7v5l-5-1-2-1h-8l-16 10 1 4 13 7v3l-3-1h-7l-10 5-1-4 7-4-1-4-16-9v-1l13 1 7-4h2v-2l8-4-1-4-14-8h-10l-13 8h-2l1 6-2 1-10-6v-1l9-3 14-8 1-4-16-9h-8l-5 1 2-4-1-4-14-8-7-1-11 6-5 3h-2l1 5 14 8-2 2-4-2-9 2-13 8-5 2h-5l-3-2v-2l9-2 15-9-1-4-9-6v-1l9-1 16-9v-4l-14-8z" fill="#E2F1FB"/>
<path transform="translate(1529,924)" d="m0 0 2 1-2 3 5 2 11 6v2l-26 15-10 6-5-1-35-20 4-4 14-8 14 8 4 2 6-1z" fill="#CCE3F4"/>
<path transform="translate(899,416)" d="m0 0h2v35l-4 9-1-3-9 3-7 1h-14l-15-9 5-5 16-12 18-13z" fill="#5792CD"/>
<path transform="translate(1405,972)" d="m0 0 14 8 5 3 4-1 10-5 9-5v2l6 2 11 6-1 3-26 15-9 5-6-1-24-14-10-6 3-3 12-7h2z" fill="#CCE3F4"/>
<path transform="translate(1325,1020)" d="m0 0 11 6 7 4 6-1 9-6 7-3 18 10v2l-18 10-18 11-5-1-24-14-11-7 4-3z" fill="#CCE3F4"/>
<path transform="translate(1146,488)" d="m0 0 7 2 18 11v49l-10-5-15-9z" fill="#CDE4F5"/>
<path transform="translate(1250,773)" d="m0 0h9l24 14 11 6 1 6-17 10h-7l-28-16-9-6v-4l9-6z" fill="#1A4482"/>
<path transform="translate(1185,512)" d="m0 0 12 6 13 8 1 1v46l-12-6-13-8-1-1z" fill="#3E71B1"/>
<path transform="translate(910,573)" d="m0 0 6 2 34 20-1 4-5 4-11 6h-9l-34-20-2-4 8-6 9-5z" fill="#1A4482"/>
<path transform="translate(1103,749)" d="m0 0h8l20 11 7 4v5l-18 11-3 1h-7l-26-15-1-4 3-3z" fill="#1A4483"/>
<path transform="translate(938,650)" d="m0 0 6 2 17 10 7 4v5l-12 7-9 5h-7l-17-10-10-6 1-5 19-11z" fill="#1A4482"/>
<path transform="translate(1118,312)" d="m0 0 6 1 5 7v75l-2 2-6-1-4-5-1-2v-75z" fill="#3B6EAF"/>
<path transform="translate(1309,746)" d="m0 0h8l22 13 9 5-1 5-15 9-8 1-23-13-9-6 1-5z" fill="#1A4482"/>
<path transform="translate(933,558)" d="m0 0 7 1 27 15 2 2-1 5-9 5-7 4h-8l-28-16-1-5 9-6z" fill="#1A4483"/>
<path transform="translate(1106,476)" d="m0 0 5 1 19 11 1 1v37l-6-2-19-11z" fill="#CDE4F5"/>
<path transform="translate(860,603)" d="m0 0 5 1 26 15 22 13h6l16-9h2v-6l5 1 10 6 3 3-6-1-1-1h-7l-15 9-2 4 17 10 7-1 16-9-1-7 5 2 13 8 1 2-4-1-2-1h-9l-16 10 1 3 15 9v3l-4-2-18-10-5-3-7 1-20 12-5-1 5-4 17-10v-4l-16-9h-7l-19 11h-5l5-5 12-7 4-1-2-5-16-9-9 2-15 9h-2v2h-2v-2l-2-1 9-6 11-6-1-5-15-8z" fill="#E2F1FB"/>
<path transform="translate(1205,134)" d="m0 0 6 1 20 11 24 14 20 12 4 4 1 4v53l-5 4h-2l-1-57-5-5-24-14-26-15-16-9z" fill="#5892CC"/>
<path transform="translate(1301,405)" d="m0 0 5 1 23 13 24 14 6 4 3 6-1 7-4 1-25-14-17-10-11-7-4-5-1-7z" fill="#B5D5F1"/>
<path transform="translate(590,299)" d="m0 0h13l12 6 7 9 3 10v9l-4 9-6 8-9 6-4 1h-13l-10-4-5-5-6-9-2-7v-7l3-9 6-9 9-6zm1 5-10 5-8 9-2 6v8l5 10 9 8 6 2h9l9-4 6-5 5-11-1-11-3-6-4-5-9-5-3-1z" fill="#CDE4F5"/>
<path transform="translate(1065,301)" d="m0 0 7 1 6 8v56l-2 2-5-1-5-4-2-4v-56z" fill="#B6D6F1"/>
<path transform="translate(529,575)" d="m0 0 9 3 17 10 26 15 17 10 5 6v56l-6 4v-45l-1-11-2-4-15-9-26-15-21-12-7-5z" fill="#3E70AF"/>
<path transform="translate(1026,438)" d="m0 0 5 1 20 12 1 1v29l-5-2-19-11-2-2z" fill="#4070AE"/>
<path transform="translate(1295,429)" d="m0 0 6 2 28 16 11 7 4 5 1 7-2 3-6-1-17-10-19-11-6-5-2-4v-7z" fill="#B5D5F1"/>
<path transform="translate(1518,68)" d="m0 0h9l6 4 4 6 1 9-4 6-6 5-2 1h-7l-8-5-4-7v-8l4-6 5-4z" fill="#CDE4F5"/>
<path transform="translate(883,619)" d="m0 0 5 1 14 8 2 2v4l-11 6-8 5-8 1-11-6-7-5 1-4 19-11z" fill="#1B4584"/>
<path transform="translate(907,635)" d="m0 0h7l17 10-1 5-19 11h-9l-16-10 1-4 15-9z" fill="#1B4584"/>
<path transform="translate(853,604)" d="m0 0h7l16 9 1 5-17 10-3 2h-9l-15-9-1-4 9-6z" fill="#1B4583"/>
<path transform="translate(825,598)" d="m0 0 3 3 1 2v8l-9 14-8 10-5 3h-7l-4-4v-10l5-14 5-9h2l3 6 2 1h8l3-3z" fill="#5793CF"/>
<path transform="translate(1140,770)" d="m0 0h8l16 9v5l-8 5-11 6-2 1h-7l-16-10 1-5z" fill="#1B4583"/>
<path transform="translate(794,582)" d="m0 0h2l2 4v9l-7 11-7 9-7 6h-8l-3-3-1-6 3-13 8-15h5l-3 1 2 5 2 1h9l2-2z" fill="#5692CE"/>
<path transform="translate(1111,926)" d="m0 0 3 1-1 5v10l1 2-10 4-11 2-13-1-5-2v-18l9 1h13l12-3z" fill="#2B538F"/>
<path transform="translate(541,774)" d="m0 0h7l6 3 4 5 1 2v10l-7 8-2 1h-10l-6-4-3-4-1-3v-7l4-7z" fill="#F9FAFC"/>
<path transform="translate(1130,733)" d="m0 0h7l17 10-1 5-13 8-5 2-7-1-16-10 1-4z" fill="#1C4785"/>
<path transform="translate(995,655)" d="m0 0h7l17 10-1 5-15 9-8 1-17-10v-5z" fill="#1C4684"/>
<path transform="translate(941,624)" d="m0 0h7l17 10-1 5-16 9-7 1-17-10v-4l5-4z" fill="#1C4685"/>
<path transform="translate(1245,738)" d="m0 0 7 1 14 8 2 2-1 4-10 6-7 4h-6l-16-9-2-4 4-4 12-7z" fill="#1C4684"/>
<path transform="translate(1050,686)" d="m0 0 7 1 14 8 2 2-1 4-8 5-10 5h-6l-16-10v-4l10-7z" fill="#1C4685"/>
<path transform="translate(1110,660)" d="m0 0 7 1 14 8 2 2-1 4-17 10h-6l-14-8-4-4 1-3z" fill="#1B4684"/>
<path transform="translate(1165,691)" d="m0 0 6 1 10 6 6 4-1 4-13 8-4 2h-7l-17-10 1-4 9-6z" fill="#1B4684"/>
<path transform="translate(1136,676)" d="m0 0h7l16 9 1 5-17 10h-8l-16-9-1-4 9-6z" fill="#1C4685"/>
<path transform="translate(1064,663)" d="m0 0 6 1 15 9v5l-17 10h-7l-17-10 1-4 10-7z" fill="#1B4584"/>
<path transform="translate(1125,637)" d="m0 0 5 1 15 9 1 4-4 3-9 5-5 3h-7l-15-9-2-2 1-4 16-9z" fill="#1B4584"/>
<path transform="translate(1197,741)" d="m0 0 8 1 15 9v5l-17 10h-7l-15-9-2-2 1-4z" fill="#1B4584"/>
<path transform="translate(1190,707)" d="m0 0 9 1 15 9-1 5-12 7-4 2h-9l-15-9-1-3 4-4z" fill="#1C4684"/>
<path transform="translate(1076,702)" d="m0 0h7l16 9 1 5-17 10h-8l-16-9-1-3 4-4z" fill="#1B4685"/>
<path transform="translate(1229,700)" d="m0 0h7l12 6 6 4-2 5-12 7-4 2h-7l-16-9-1-5z" fill="#1B4584"/>
<path transform="translate(1056,629)" d="m0 0 7 1 14 8 2 2-1 4-17 10h-6l-17-10v-4l5-4 11-6z" fill="#1B4584"/>
<path transform="translate(987,560)" d="m0 0h8l16 10-1 5-16 9h-8l-15-9-2-4 9-6z" fill="#1B4685"/>
<path transform="translate(1102,718)" d="m0 0h9l15 9 1 4-9 6-9 5h-7l-16-10-1-3 3-3 9-5z" fill="#1B4584"/>
<path transform="translate(1117,695)" d="m0 0h7l15 9v5l-17 10h-7l-17-10 1-5 14-8z" fill="#1B4684"/>
<path transform="translate(1175,669)" d="m0 0h8l16 9 1 4-9 6-9 5h-7l-17-10 1-4 10-7z" fill="#1B4584"/>
<path transform="translate(967,640)" d="m0 0h9l15 9 1 4-5 4-12 7h-8l-16-10v-4z" fill="#1B4584"/>
<path transform="translate(1283,731)" d="m0 0h8l16 9v5h-2v2l-11 6-3 2h-9l-16-10 1-4 9-6z" fill="#1B4584"/>
<path transform="translate(1257,715)" d="m0 0 8 1 11 7 5 3-1 4h-3v2l-13 7-8 1-16-10-1-4 9-6z" fill="#1B4584"/>
<path transform="translate(1089,679)" d="m0 0h7l15 9 2 4-5 4h-3v2l-5 1v2l-4 2h-9l-15-9-1-4 9-6z" fill="#1B4584"/>
<path transform="translate(1040,591)" d="m0 0h8l16 9 1 4-10 7-7 4h-8l-17-10 1-4 9-6z" fill="#1B4584"/>
<path transform="translate(1185,764)" d="m0 0h6l9 5v2l5 1 3 3-1 4-12 7-4 2h-9l-15-9-1-3 4-4 12-7z" fill="#1B4584"/>
<path transform="translate(1223,757)" d="m0 0h8l11 7 5 2v5l-11 7-5 3h-9l-15-9-1-4 1-2 11-6z" fill="#1B4583"/>
<path transform="translate(1271,754)" d="m0 0h7l11 6 5 3 1 4-5 4-9 5-3 2h-8l-16-9-1-4 5-4z" fill="#1B4584"/>
<path transform="translate(1156,749)" d="m0 0h9l15 9 1 4-7 5-11 6h-7l-15-9-2-4 5-4z" fill="#1B4584"/>
<path transform="translate(1143,710)" d="m0 0h6l16 9 1 1v5l-11 6-5 3h-9l-14-8-2-2 1-4 15-9z" fill="#1B4584"/>
<path transform="translate(1149,653)" d="m0 0h6l18 10-1 4-9 6-7 4h-9l-15-9-1-4 9-6z" fill="#1B4584"/>
<path transform="translate(1094,622)" d="m0 0h8l14 8 2 1v5l-9 6-7 4h-9l-15-9-1-4 10-7z" fill="#1B4584"/>
<path transform="translate(1066,607)" d="m0 0h10l15 9 1 4-6 4h-3v2l-6 3-3 2h-6l-16-9-2-4 4-4z" fill="#1B4584"/>
<path transform="translate(1015,575)" d="m0 0 9 2 12 7 2 2-1 4-15 9h-10l-15-9-1-3 4-4 12-7z" fill="#1B4583"/>
<path transform="translate(961,544)" d="m0 0h6l17 10-1 5-13 8-5 2-7-1-15-9 1-5z" fill="#1B4584"/>
<path transform="translate(1022,671)" d="m0 0h7l15 8 2 2-1 5-16 9h-8l-15-9-1-5 15-9z" fill="#1B4584"/>
<path transform="translate(1082,645)" d="m0 0h7l9 5 8 5-1 5-16 9h-8l-12-7-4-2v-5l13-8z" fill="#1B4584"/>
<path transform="translate(971,582)" d="m0 0h9l14 8 2 2-1 4-15 9-2 1h-6l-17-10v-4l9-6z" fill="#1B4584"/>
<path transform="translate(1216,723)" d="m0 0h9l9 6 7 4-1 4-11 7-6 3h-7l-16-9v-6z" fill="#1B4583"/>
<path transform="translate(1034,648)" d="m0 0h8l16 9v5l-4 3-9 5-3 2h-9l-16-10 1-4 13-8z" fill="#1A4583"/>
<path transform="translate(1169,726)" d="m0 0h8l16 9v5l-15 9-2 1h-7l-16-9-1-4 5-4z" fill="#1B4584"/>
<path transform="translate(1203,684)" d="m0 0h7l16 10-1 5-11 7-4 2h-9l-15-9-1-4 9-6z" fill="#1B4583"/>
<path transform="translate(1010,632)" d="m0 0 6 1 15 9 1 3-3 3-16 9-7-1-15-9-1-3 3-3 13-8z" fill="#3D71B1"/>
<path transform="translate(1297,770)" d="m0 0h9l14 8 2 2-1 4-15 9h-10l-14-8-2-2 1-4z" fill="#1A4483"/>
<path transform="translate(1026,614)" d="m0 0h10l15 9v5l-6 3-8 5-3 1h-9l-15-9 1-5z" fill="#1A4483"/>
<path transform="translate(953,601)" d="m0 0h7l16 9 1 5-13 8-4 2h-8l-16-10 1-4 13-8z" fill="#3D71B2"/>
<path transform="translate(980,617)" d="m0 0h8l17 10-2 5-16 9h-7l-17-10 2-5z" fill="#3D71B1"/>
<path transform="translate(1e3 597)" d="m0 0 5 1 15 9 1 3-3 3-14 8-7 1-16-9-2-4 8-6 9-5z" fill="#3D71B1"/>
<path transform="translate(1091,336)" d="m0 0h6l6 7 1 2v35l-3 3-6-2-5-6v-38z" fill="#B7D6F1"/>
<path transform="translate(1164,779)" d="m0 0 2 2 4-1 12 7h9 3l-2 2 2 1v4l9 5v1l-10 1-4 3h-2v4h-7l2-2h-3l-2-3-11-6-7-4-1-6 5-3z" fill="#CAE1F3"/>
<path transform="translate(678,942)" d="m0 0h16l20 4 6 2v1l-13 2v7h-9l-5-3-1-1-20-1-17-4-1-2 16-4z" fill="#F8FAFC"/>
<path transform="translate(1247,402)" d="m0 0 6 1 24 14 6 5 2 4v6l-2 2-6-1-26-15-5-6-1-7z" fill="#3F71B0"/>
<path transform="translate(1200,374)" d="m0 0 6 2 24 14 6 5 1 3v8l-5 1-23-13-8-6-3-5v-7z" fill="#B5D5F1"/>
<path transform="translate(1400,367)" d="m0 0 4 1 8 12 4 10-1 6-4 3-6 1-2 4-3-12-7-13-4-5v-2z" fill="#2B548F"/>
<path transform="translate(828,443)" d="m0 0h1l1 16 4 3 16 8 4 3-2 4-19 11-3 1-2 4z" fill="#CBE2F4"/>
<path transform="translate(764,405)" d="m0 0 5 1 23 13 21 12 13 8 2 2v54l-3 4-3-2h2v-52l-2-4-24-14-25-15-9-6z" fill="#2C5897"/>
<path transform="translate(1180,808)" d="m0 0h9l11 6 5 5v4l-7 4h-8l-17-10-1-4 4-3z" fill="#234C89"/>
<path transform="translate(1208,823)" d="m0 0 7 1 17 10v4l-7 5h-7l-16-9-3-2 1-4z" fill="#1D4886"/>
<path transform="translate(1154,792)" d="m0 0 7 1 12 7 6 4-2 4-7 4h-6l-19-11v-4z" fill="#1D4786"/>
<path transform="translate(1072,694)" d="m0 0 12 6 3 2 6 1v1l-7 1-3-2h-7l-16 9-1 4 16 9h8l12-7 2 1-1 4-8 4h-2l1 5 15 9-2 2-18-10-24-14-9-5 1-3 9-3 5-3 8-5z" fill="#E0EFFA"/>
<path transform="translate(743,873)" d="m0 0h36v8l-1 1-27 1-7 6z" fill="#5793CF"/>
<path transform="translate(1046,679)" d="m0 0 14 7 1 1h7l10-6h4v3l-10 6v6l-11-6-6-3-7 1-14 8-2 4 19 12-3 1-18-10-20-12 4-1 7 4h8l16-9z" fill="#E4F2FB"/>
<path transform="translate(1308,742)" d="m0 0 1 2h5l-4 2-17 10v4l19 11 11 7-3 1-14-8h-9l-16 9 1 4 14 8v2l-6-2-18-10 1-3-2-1 9-2 7-5 7-4v-4l-5-2-4-2 1-3-2-1 9-2 10-6h2v-2h3z" fill="#DCEDF8"/>
<path transform="translate(1065,586)" d="m0 0h6l18 10-1 5-5 3h-7l-16-9-2-3 5-5z" fill="#1E4987"/>
<path transform="translate(1037,571)" d="m0 0h9l9 6 6 3 1 5-7 4-7-1-15-9-1-4z" fill="#1D4886"/>
<path transform="translate(977,535)" d="m0 0h6l16 9 1 5-6 4h-6l-16-9-2-4 3-3z" fill="#1D4887"/>
<path transform="translate(1268,703)" d="m0 0h6l16 9 1 5-6 4h-6l-16-9-2-4z" fill="#1C4786"/>
<path transform="translate(1321,734)" d="m0 0 9 1 15 9-1 5-8 3-6-1-15-9 1-5z" fill="#1D4886"/>
<path transform="translate(1293,719)" d="m0 0h8l12 6 5 3-1 5-4 3h-9l-16-10 1-4z" fill="#1D4886"/>
<path transform="translate(1013,555)" d="m0 0 7 1 9 6 6 3-1 5-5 3h-7l-17-10 1-4 4-3z" fill="#1C4786"/>
<path transform="translate(1240,688)" d="m0 0h8l16 9 1 3-5 5h-9l-15-9-1-5z" fill="#1C4685"/>
<path transform="translate(1091,602)" d="m0 0h8l11 6 6 4-2 5-4 2h-8l-14-8-2-2v-4z" fill="#1C4685"/>
<path transform="translate(733,901)" d="m0 0 5 4 6 12v7l-4 8-5 6-3 1v-37z" fill="#538ECB"/>
<path transform="translate(1173,713)" d="m0 0 5 1-5 5 1 3 14 8h9l9-5 2 1 1 2-7 4h-2v6l6 2 3 3h-4l-8-1-7 4h-2v-4l5-2v-5l-5-2-11-6h-8l-3 1v-2l-4 1 1-2h3l-1-6 1-2-2-1z" fill="#DFEFF9"/>
<path transform="translate(1148,55)" d="m0 0 5 3 6 5 8-7 3 1-1 4-5 5 1 4 5 6-1 4-4-1-7-6-8 7-4-1 1-4 6-7-6-7-1-4z" fill="#CCE3F4"/>
<path transform="translate(678,695)" d="m0 0 2 3 5 5 8 5v18l-5-2-8-6-2-4z" fill="#5792CE"/>
<path transform="translate(814,94)" d="m0 0 4 1-1 5-10 4-9 12-6 4h-7l-3-1 1-4 1-2h6l5-5 7-9 4-3z" fill="#5792CE"/>
<path transform="translate(1468,757)" d="m0 0h1v157h-1v-16h-3v-21l1-6h2z" fill="#DDEEFA"/>
<path transform="translate(974,1010)" d="m0 0 5 1 4 4 1 7-5 5-6 1-5-4-1-2v-6l5-5z" fill="#CDE4F5"/>
<path transform="translate(1625,279)" d="m0 0 3 4 4 8v2l-11 6h-3l-5-10v-4z" fill="#5792CD"/>
<path transform="translate(1120,681)" d="m0 0h7l-5 4-3 2v3l16 9 7 1v1l-8 1-10-6h-7l-7 3-10 5v-4l3-2h2v-2l6-3v-4l-9-5v-1l13 1z" fill="#DEEDF9"/>
<path transform="translate(860,603)" d="m0 0 5 1 26 15 5 3-1 3-9-5-9 2-15 9h-2v2h-2v-2l-2-1 9-6 11-6-1-5-15-8z" fill="#DFEFFA"/>
<path transform="translate(764,405)" d="m0 0 5 1 23 13 21 12 13 8-1 6-5-5-22-13-25-15-9-6z" fill="#416CA4"/>
<path transform="translate(875,468)" d="m0 0h1v5l-3 3-8 4h-2v2l-7 2v2l-7 2v2l-7 2v2l-10 5 1-6 25-14 15-9h2z" fill="#5590CC"/>
<path transform="translate(1064,655)" d="m0 0h1v5l4 1-2 2-12 5-10 7-1 3h2l-1 3-7-4-9-5-7-1v-1h10l1 1h9l9-6 6-3 1-4 4-1 1 1z" fill="#DFEEF9"/>
<path transform="translate(1067,662)" d="m0 0 5 1 9 5h8l3-2 3 1-1 3h-2v5l4 2 9 5-4 1-5-3h-7l-7 3v-2l-2-1 4-2v-5l-17-10z" fill="#E2F0FA"/>
<path transform="translate(1100,700)" d="m0 0 3 1-4 4v4l17 10 1 2-6-2h-9l-4 2-3-1 4-4v-4l-10-6-1-2 10-3z" fill="#E3F1FB"/>
<path transform="translate(991,648)" d="m0 0 5 1 8 5-2 2h-7l-17 10-2 2v-2l-5 1-4-1v-2l8-1 15-9 1-4z" fill="#E3F2FC"/>
<path transform="translate(824,596)" d="m0 0h1v9l-4 4h-8l-5-5-1-4h10l6-3z" fill="#C8E1F4"/>
<path transform="translate(1206,772)" d="m0 0 6 2 14 8v2l-6-2-2-1h-7l-16 9-4-1 7-6 7-4h2z" fill="#E4F2FB"/>
<path transform="translate(1095,718)" d="m0 0 2 1-1 4-8 4h-2l1 5 15 9-2 2-18-10-5-4-1-3 9-2z" fill="#DEEFFA"/>
<path transform="translate(1173,713)" d="m0 0 5 1-5 5 1 3 9 5-1 2-5-2h-8l-3 1v-2l-4 1 1-2h3l-1-6 1-2-2-1z" fill="#DCEDF9"/>
<path transform="translate(1287,771)" d="m0 0 3 1-2 4-7 4 1 4 14 8v2l-6-2-18-10 1-3-2-1 9-2z" fill="#DEEEF9"/>
<path transform="translate(1227,697)" d="m0 0 2 1v3l-16 9v7l-9-5-1-4 7-1 12-7 5-1z" fill="#DDEEFA"/>
<path transform="translate(1187,700)" d="m0 0 5 2 12 7 1 2-5-1-4-2h-6l-11 6h-5l4-4 8-5z" fill="#E6F3FC"/>
<path transform="translate(793,581)" d="m0 0 3 1h-2v7l-3 3h-9l-4-3v-4l11-1z" fill="#CAE2F4"/>
<path transform="translate(1e3 632)" d="m0 0 3 1 1 2-12 7h-2l1 6-2 1-9-5v-3l8-2z" fill="#DEEFFA"/>
<path transform="translate(884,351)" d="m0 0h2l-1 39-4-2v-13z" fill="#3B6EAF"/>
<path transform="translate(829,336)" d="m0 0h1l-1 13-2 19-1 3-4-1-1-3z" fill="#3C6FAF"/>
<path transform="translate(1132,669)" d="m0 0 5 1 14 8v2l-6-2-2-1h-7l-7 4-7 1v-2l10-6z" fill="#E5F3FB"/>
<path transform="translate(1461,490)" d="m0 0h5l-1 3h-3l-1 4-4 1v3l-4 1-1 4-9 1 4-4 1-3 4-1 2-4h3l1-4z" fill="#5591CD"/>
<path transform="translate(1078,681)" d="m0 0h4v3l-10 6v6l-11-6-3-3h10z" fill="#E8F4FC"/>
<path transform="translate(1147,768)" d="m0 0 6 2 3 2h7l6-2-2 8 1 3h-2l-1 2v-4l-4-1-13-7-7-1v-1z" fill="#E2F1FB"/>
<path transform="translate(1213,715)" d="m0 0 5 2 14 8v2l-6-2-1-1h-9l-5 3-4-1 4-4 2-1z" fill="#E4F2FB"/>
<path transform="translate(1139,764)" d="m0 0 5 1 3 2v2l-7 2-19 11h-2l-1 3v-2l-2-1 1-2 11-6 9-5h2z" fill="#E8F4FC"/>
<path transform="translate(1187,743)" d="m0 0 2 1-1 3-8 5 1 7-13-7v-2l10-2z" fill="#E3F1FB"/>
<path transform="translate(886,588)" d="m0 0 9 3 28 16 2 2 4 2-3 1-25-14-15-9z" fill="#E9F3FA"/>
<path transform="translate(1078,637)" d="m0 0 14 7v3l-3-1h-7l-10 5-1-4 7-4z" fill="#E0EFFA"/>
<path transform="translate(1234,436)" d="m0 0 12 6 14 8-4 1-15-6-8-7z" fill="#EEF9FF"/>
<path transform="translate(1262,712)" d="m0 0 5 1 12 7 4 2-1 3-6-1-11-7-5-2 2-1z" fill="#DEEEF9"/>
<path transform="translate(1235,696)" d="m0 0 6 2 11 7 5 1-2 3-6-1-10-6-3-1v-2l-3-1h2z" fill="#E2F1FB"/>
<path transform="translate(1064,655)" d="m0 0h1v5l4 1-2 2-13 5-4-2 7-4 1-4 4-1 1 1z" fill="#D5E9F8"/>
<path transform="translate(1316,743)" d="m0 0 6 2 14 9 2 4-6-2-15-9z" fill="#E0EEF8"/>
<path transform="translate(1288,727)" d="m0 0 4 1 12 7 6 2-2 4-14-7-6-4z" fill="#E3F2FC"/>
<path transform="translate(1313,735)" d="m0 0h7l-4 3-1 4 2 1-1 3h-6l-1-2-2 1v-5l2-2-4-2z" fill="#C5DFF3"/>
<path transform="translate(970,543)" d="m0 0 5 2 14 8 1 2h-6l-16-9v-2z" fill="#E1F0FA"/>
<path transform="translate(1230,183)" d="m0 0 5 1 3 4v5l-5 1-4-5v-5z" fill="#F9FBFD"/>
<path transform="translate(540,617)" d="m0 0 5 1 3 4v5l-5 1-4-6z" fill="#EDF2F5"/>
<path transform="translate(1217,176)" d="m0 0 5 1 3 4-1 5-2 1-5-3-1-7z" fill="#FAFCFD"/>
<path transform="translate(1243,191)" d="m0 0 5 1 3 3v6l-4 1-5-6z" fill="#FBFCFD"/>
<path transform="translate(807,430)" d="m0 0 6 1 13 8-1 6-5-5-13-8z" fill="#4272AD"/>
<path transform="translate(566,633)" d="m0 0 6 1 3 7-2 3-5-2-2-3z" fill="#F5F9FC"/>
<path transform="translate(1097,749)" d="m0 0 2 1-1 3-12 7h-2v2l-11-1v-1l8-1 13-8z" fill="#DFF0FB"/>
<path transform="translate(1286,719)" d="m0 0 2 1 1 7-1 3 2 1h-6l-4-6h2v-4z" fill="#C8E1F4"/>
<path transform="translate(1070,648)" d="m0 0h2l-1 4-5 3h-2l-1 4-9-3-1-2 10-2z" fill="#EBF5FC"/>
<path transform="translate(1252,705)" d="m0 0h7l4 2v4l-1 3-5 1-4-5 3-3z" fill="#C9E1F4"/>
<path transform="translate(554,625)" d="m0 0 4 1 3 4v5l-4 1-4-4v-6z" fill="#F9FBFD"/>
<path transform="translate(1242,793)" d="m0 0 5 1 22 13 1 2-5-1-22-13z" fill="#E6F2FA"/>
<path transform="translate(1100,700)" d="m0 0 3 1-4 4v5l-2 1-9-6v-1l10-3z" fill="#E7F4FC"/>
<path transform="translate(798,498)" d="m0 0v3l-2 5v19l-1 14h-1l-1-37z" fill="#D6E7F4"/>
<path transform="translate(963,673)" d="m0 0 5 1-1 4-5 3h-6l2-4z" fill="#DFEFFA"/>
<path transform="translate(575,307)" d="m0 0h8l-6 7h-4l-4 5 1-5z" fill="#B9D7F1"/>
<path transform="translate(1308,742)" d="m0 0 1 2h5l-4 2-17 10h-2v-2l12-7h2v-2h3z" fill="#DFEFFA"/>
<path transform="translate(1156,788)" d="m0 0h3l1 4-8 2-5 3h-5l3-3z" fill="#DAECF9"/>
<path transform="translate(1006,629)" d="m0 0h7l9 5v2l-4-1-4-2-11 1z" fill="#E5F3FC"/>
<path transform="translate(792,422)" d="m0 0 7 1 10 6-4 2-13-8z" fill="#406DA7"/>
<path transform="translate(1206,820)" d="m0 0h5l-5 5-6 4h-8l4-2 6-4h3z" fill="#DDEEFA"/>
<path transform="translate(1180,805)" d="m0 0 4 2h-4l-1 3-8 4h-5l4-3z" fill="#DEEFFA"/>
<path transform="translate(1284,755)" d="m0 0h7l2 5-1 3-7-4 1-3z" fill="#D7EAF9"/>
<path transform="translate(1299,733)" d="m0 0 5 2 6 2-2 4-10-5z" fill="#E7F4FC"/>
<path transform="translate(1256,771)" d="m0 0 5 1 12 7v2l-6-2-11-7z" fill="#EAF3FA"/>
<path transform="translate(1164,726)" d="m0 0h2l-2 4-5 3h-5l1-3z" fill="#EDF5FB"/>
<path transform="translate(1150,709)" d="m0 0 5 2 11 6v2l-6-2-11-6z" fill="#E7F2FA"/>
<path transform="translate(958,598)" d="m0 0 5 2 9 5-1 2-5-2-6-3-6-1z" fill="#D9EBF9"/>
<path transform="translate(915,574)" d="m0 0 5 1 12 7-2 2-14-8z" fill="#E9F3FB"/>
<path transform="translate(1064,720)" d="m0 0 5 2 8 5 1 2-4-1-11-6z" fill="#E9F3FA"/>
<path transform="translate(978,671)" d="m0 0 5 1 10 6-2 2-11-6-4-2z" fill="#E6F2FB"/>
<path transform="translate(1008,623)" d="m0 0 3 1-1 4 2 1-6 1-1 2-2-1 1-5z" fill="#C7E0F4"/>
<path transform="translate(782,415)" d="m0 0 5 1 8 5-1 2-7-3-5-3z" fill="#3E69A2"/>
<path transform="translate(940,558)" d="m0 0 6 2 9 5-2 2-13-7z" fill="#E4F1FA"/>
<path transform="translate(1126,775)" d="m0 0 2 1v2l-7 4h-2l-1 3v-2l-2-1 1-2z" fill="#E3F1FB"/>
<path transform="translate(1118,752)" d="m0 0 5 1 9 5-1 2-5-2-8-5z" fill="#E9F3FA"/>
<path transform="translate(979,609)" d="m0 0h3l2 4h-2v2h-5l-1-5z" fill="#C8E1F4"/>
<path transform="translate(1187,743)" d="m0 0 2 1-1 3-5 3-3-1v-2z" fill="#ECF4FA"/>
<path transform="translate(989,616)" d="m0 0 5 2 6 3-1 3-11-6z" fill="#DBECF9"/>
<path transform="translate(1147,768)" d="m0 0 6 2 3 3-3 1-5-3-7-1v-1z" fill="#D7E8F4"/>
<path transform="translate(1085,756)" d="m0 0 2 1-3 5-11-1v-1l8-1z" fill="#E6F4FD"/>
<path transform="translate(1208,743)" d="m0 0 4 1 8 4-1 3-10-6z" fill="#E7F1FA"/>
</svg>
